<svg width="170" height="17" viewBox="0 0 170 17" fill="none" xmlns="http://www.w3.org/2000/svg">
<g opacity="0.25">
<path d="M2 15.75C1.5875 15.75 1.2345 15.6032 0.941 15.3097C0.6475 15.0162 0.5005 14.663 0.5 14.25V6.75C0.5 6.3375 0.647 5.9845 0.941 5.691C1.235 5.3975 1.588 5.2505 2 5.25H2.75V3.75C2.75 2.7125 3.11575 1.82825 3.84725 1.09725C4.57875 0.366251 5.463 0.000500512 6.5 5.11945e-07C7.537 -0.000499488 8.4215 0.365251 9.1535 1.09725C9.8855 1.82925 10.251 2.7135 10.25 3.75V5.25H11C11.4125 5.25 11.7657 5.397 12.0597 5.691C12.3537 5.985 12.5005 6.338 12.5 6.75V14.25C12.5 14.6625 12.3532 15.0157 12.0597 15.3097C11.7662 15.6037 11.413 15.7505 11 15.75H2ZM6.5 12C6.9125 12 7.26575 11.8532 7.55975 11.5597C7.85375 11.2662 8.0005 10.913 8 10.5C7.9995 10.087 7.85275 9.734 7.55975 9.441C7.26675 9.148 6.9135 9.001 6.5 9C6.0865 8.999 5.7335 9.146 5.441 9.441C5.1485 9.736 5.0015 10.089 5 10.5C4.9985 10.911 5.1455 11.2642 5.441 11.5597C5.7365 11.8552 6.0895 12.002 6.5 12ZM4.25 5.25H8.75V3.75C8.75 3.125 8.53125 2.59375 8.09375 2.15625C7.65625 1.71875 7.125 1.5 6.5 1.5C5.875 1.5 5.34375 1.71875 4.90625 2.15625C4.46875 2.59375 4.25 3.125 4.25 3.75V5.25Z" fill="black"/>
<path d="M23.214 11.853C24.3993 10.901 25.328 10.1217 26 9.515C26.672 8.899 27.2367 8.25967 27.694 7.597C28.1607 6.925 28.394 6.267 28.394 5.623C28.394 5.01633 28.2447 4.54033 27.946 4.195C27.6567 3.84033 27.1853 3.663 26.532 3.663C25.8973 3.663 25.4027 3.86367 25.048 4.265C24.7027 4.657 24.516 5.18433 24.488 5.847H23.256C23.2933 4.80167 23.6107 3.99433 24.208 3.425C24.8053 2.85567 25.5753 2.571 26.518 2.571C27.4793 2.571 28.24 2.837 28.8 3.369C29.3693 3.901 29.654 4.63367 29.654 5.567C29.654 6.34167 29.4207 7.09767 28.954 7.835C28.4967 8.563 27.974 9.207 27.386 9.767C26.798 10.3177 26.0467 10.9617 25.132 11.699H29.948V12.763H23.214V11.853ZM37.3147 3.859H32.4007V7.051C32.6154 6.75233 32.9327 6.50967 33.3527 6.323C33.7727 6.127 34.2254 6.029 34.7107 6.029C35.4854 6.029 36.1154 6.19233 36.6007 6.519C37.0861 6.83633 37.4314 7.25167 37.6367 7.765C37.8514 8.269 37.9587 8.80567 37.9587 9.375C37.9587 10.047 37.8327 10.649 37.5807 11.181C37.3287 11.713 36.9414 12.133 36.4187 12.441C35.9054 12.749 35.2661 12.903 34.5007 12.903C33.5207 12.903 32.7274 12.651 32.1207 12.147C31.5141 11.643 31.1454 10.971 31.0147 10.131H32.2607C32.3821 10.663 32.6387 11.0783 33.0307 11.377C33.4227 11.6757 33.9174 11.825 34.5147 11.825C35.2521 11.825 35.8074 11.6057 36.1807 11.167C36.5541 10.719 36.7407 10.131 36.7407 9.403C36.7407 8.675 36.5541 8.115 36.1807 7.723C35.8074 7.32167 35.2567 7.121 34.5287 7.121C34.0341 7.121 33.6001 7.24233 33.2267 7.485C32.8627 7.71833 32.5967 8.04033 32.4287 8.451H31.2247V2.739H37.3147V3.859ZM44.7338 5.161C44.5284 4.125 43.8891 3.607 42.8158 3.607C41.9851 3.607 41.3644 3.929 40.9538 4.573C40.5431 5.20767 40.3424 6.25767 40.3518 7.723C40.5664 7.23767 40.9211 6.85967 41.4158 6.589C41.9198 6.309 42.4798 6.169 43.0958 6.169C44.0571 6.169 44.8224 6.46767 45.3918 7.065C45.9704 7.66233 46.2598 8.48833 46.2598 9.543C46.2598 10.1777 46.1338 10.747 45.8818 11.251C45.6391 11.755 45.2658 12.1563 44.7618 12.455C44.2671 12.7537 43.6651 12.903 42.9558 12.903C41.9944 12.903 41.2431 12.6883 40.7018 12.259C40.1604 11.8297 39.7824 11.237 39.5678 10.481C39.3531 9.725 39.2458 8.79167 39.2458 7.681C39.2458 4.25567 40.4404 2.543 42.8298 2.543C43.7444 2.543 44.4631 2.79033 44.9858 3.285C45.5084 3.77967 45.8164 4.405 45.9098 5.161H44.7338ZM42.8298 7.247C42.4284 7.247 42.0504 7.331 41.6958 7.499C41.3411 7.65767 41.0518 7.905 40.8278 8.241C40.6131 8.56767 40.5058 8.969 40.5058 9.445C40.5058 10.1543 40.7111 10.733 41.1218 11.181C41.5324 11.6197 42.1204 11.839 42.8858 11.839C43.5391 11.839 44.0571 11.6383 44.4398 11.237C44.8318 10.8263 45.0278 10.2757 45.0278 9.585C45.0278 8.857 44.8411 8.28767 44.4678 7.877C44.0944 7.457 43.5484 7.247 42.8298 7.247ZM52.9485 7.205V8.283H47.3625V7.205H52.9485ZM57.8734 12.973C57.2294 12.973 56.6507 12.861 56.1374 12.637C55.6334 12.4037 55.2367 12.0863 54.9474 11.685C54.6581 11.2743 54.5087 10.803 54.4994 10.271H55.8574C55.9041 10.7283 56.0907 11.1157 56.4174 11.433C56.7534 11.741 57.2387 11.895 57.8734 11.895C58.4801 11.895 58.9561 11.7457 59.3014 11.447C59.6561 11.139 59.8334 10.747 59.8334 10.271C59.8334 9.89767 59.7307 9.59433 59.5254 9.361C59.3201 9.12767 59.0634 8.95033 58.7554 8.829C58.4474 8.70767 58.0321 8.577 57.5094 8.437C56.8654 8.269 56.3474 8.101 55.9554 7.933C55.5727 7.765 55.2414 7.50367 54.9614 7.149C54.6907 6.785 54.5554 6.29967 54.5554 5.693C54.5554 5.161 54.6907 4.68967 54.9614 4.279C55.2321 3.86833 55.6101 3.551 56.0954 3.327C56.5901 3.103 57.1547 2.991 57.7894 2.991C58.7041 2.991 59.4507 3.21967 60.0294 3.677C60.6174 4.13433 60.9487 4.741 61.0234 5.497H59.6234C59.5767 5.12367 59.3807 4.797 59.0354 4.517C58.6901 4.22767 58.2327 4.083 57.6634 4.083C57.1314 4.083 56.6974 4.223 56.3614 4.503C56.0254 4.77367 55.8574 5.15633 55.8574 5.651C55.8574 6.00567 55.9554 6.295 56.1514 6.519C56.3567 6.743 56.6041 6.91567 56.8934 7.037C57.1921 7.149 57.6074 7.27967 58.1394 7.429C58.7834 7.60633 59.3014 7.78367 59.6934 7.961C60.0854 8.129 60.4214 8.395 60.7014 8.759C60.9814 9.11367 61.1214 9.599 61.1214 10.215C61.1214 10.691 60.9954 11.139 60.7434 11.559C60.4914 11.979 60.1181 12.3197 59.6234 12.581C59.1287 12.8423 58.5454 12.973 57.8734 12.973ZM69.9542 3.117V12.875H68.6802V8.451H63.7102V12.875H62.4362V3.117H63.7102V7.401H68.6802V3.117H69.9542ZM77.3376 10.705H73.0816L72.2976 12.875H70.9536L74.4816 3.173H75.9516L79.4656 12.875H78.1216L77.3376 10.705ZM76.9736 9.669L75.2096 4.741L73.4456 9.669H76.9736ZM84.8896 6.631C85.1509 6.17367 85.5336 5.80033 86.0376 5.511C86.5416 5.22167 87.1156 5.077 87.7596 5.077C88.4502 5.077 89.0709 5.24033 89.6216 5.567C90.1722 5.89367 90.6062 6.35567 90.9236 6.953C91.2409 7.541 91.3996 8.227 91.3996 9.011C91.3996 9.78567 91.2409 10.4763 90.9236 11.083C90.6062 11.6897 90.1676 12.161 89.6076 12.497C89.0569 12.833 88.4409 13.001 87.7596 13.001C87.0969 13.001 86.5136 12.8563 86.0096 12.567C85.5149 12.2777 85.1416 11.909 84.8896 11.461V12.875H83.6156V2.515H84.8896V6.631ZM90.0976 9.011C90.0976 8.43233 89.9809 7.92833 89.7476 7.499C89.5142 7.06967 89.1969 6.743 88.7956 6.519C88.4036 6.295 87.9696 6.183 87.4936 6.183C87.0269 6.183 86.5929 6.29967 86.1916 6.533C85.7996 6.757 85.4822 7.08833 85.2396 7.527C85.0062 7.95633 84.8896 8.45567 84.8896 9.025C84.8896 9.60367 85.0062 10.1123 85.2396 10.551C85.4822 10.9803 85.7996 11.3117 86.1916 11.545C86.5929 11.769 87.0269 11.881 87.4936 11.881C87.9696 11.881 88.4036 11.769 88.7956 11.545C89.1969 11.3117 89.5142 10.9803 89.7476 10.551C89.9809 10.1123 90.0976 9.599 90.0976 9.011ZM93.1745 3.957C92.9318 3.957 92.7265 3.873 92.5585 3.705C92.3905 3.537 92.3065 3.33167 92.3065 3.089C92.3065 2.84633 92.3905 2.641 92.5585 2.473C92.7265 2.305 92.9318 2.221 93.1745 2.221C93.4078 2.221 93.6038 2.305 93.7625 2.473C93.9305 2.641 94.0145 2.84633 94.0145 3.089C94.0145 3.33167 93.9305 3.537 93.7625 3.705C93.6038 3.873 93.4078 3.957 93.1745 3.957ZM93.7905 5.203V12.875H92.5165V5.203H93.7905ZM96.9558 6.253V10.775C96.9558 11.1483 97.0352 11.4143 97.1938 11.573C97.3525 11.7223 97.6278 11.797 98.0198 11.797H98.9578V12.875H97.8098C97.1005 12.875 96.5685 12.7117 96.2138 12.385C95.8592 12.0583 95.6818 11.5217 95.6818 10.775V6.253H94.6878V5.203H95.6818V3.271H96.9558V5.203H98.9578V6.253H96.9558ZM110.114 8.745C110.114 8.98767 110.1 9.24433 110.072 9.515H103.94C103.987 10.271 104.243 10.8637 104.71 11.293C105.186 11.713 105.76 11.923 106.432 11.923C106.983 11.923 107.44 11.797 107.804 11.545C108.177 11.2837 108.439 10.9383 108.588 10.509H109.96C109.755 11.2463 109.344 11.8483 108.728 12.315C108.112 12.7723 107.347 13.001 106.432 13.001C105.704 13.001 105.051 12.8377 104.472 12.511C103.903 12.1843 103.455 11.7223 103.128 11.125C102.801 10.5183 102.638 9.81833 102.638 9.025C102.638 8.23167 102.797 7.53633 103.114 6.939C103.431 6.34167 103.875 5.88433 104.444 5.567C105.023 5.24033 105.685 5.077 106.432 5.077C107.16 5.077 107.804 5.23567 108.364 5.553C108.924 5.87033 109.353 6.309 109.652 6.869C109.96 7.41967 110.114 8.045 110.114 8.745ZM108.798 8.479C108.798 7.99367 108.691 7.57833 108.476 7.233C108.261 6.87833 107.967 6.61233 107.594 6.435C107.23 6.24833 106.824 6.155 106.376 6.155C105.732 6.155 105.181 6.36033 104.724 6.771C104.276 7.18167 104.019 7.751 103.954 8.479H108.798ZM114.974 5.063C115.907 5.063 116.663 5.34767 117.242 5.917C117.82 6.477 118.11 7.289 118.11 8.353V12.875H116.85V8.535C116.85 7.76967 116.658 7.18633 116.276 6.785C115.893 6.37433 115.37 6.169 114.708 6.169C114.036 6.169 113.499 6.379 113.098 6.799C112.706 7.219 112.51 7.83033 112.51 8.633V12.875H111.236V5.203H112.51V6.295C112.762 5.903 113.102 5.59967 113.532 5.385C113.97 5.17033 114.451 5.063 114.974 5.063ZM119.155 9.025C119.155 8.23167 119.313 7.541 119.631 6.953C119.948 6.35567 120.387 5.89367 120.947 5.567C121.516 5.24033 122.165 5.077 122.893 5.077C123.835 5.077 124.61 5.30567 125.217 5.763C125.833 6.22033 126.239 6.855 126.435 7.667H125.063C124.932 7.20033 124.675 6.83167 124.293 6.561C123.919 6.29033 123.453 6.155 122.893 6.155C122.165 6.155 121.577 6.407 121.129 6.911C120.681 7.40567 120.457 8.11033 120.457 9.025C120.457 9.949 120.681 10.663 121.129 11.167C121.577 11.671 122.165 11.923 122.893 11.923C123.453 11.923 123.919 11.7923 124.293 11.531C124.666 11.2697 124.923 10.8963 125.063 10.411H126.435C126.229 11.195 125.819 11.825 125.203 12.301C124.587 12.7677 123.817 13.001 122.893 13.001C122.165 13.001 121.516 12.8377 120.947 12.511C120.387 12.1843 119.948 11.7223 119.631 11.125C119.313 10.5277 119.155 9.82767 119.155 9.025ZM128.848 6.449C129.072 6.01033 129.39 5.66967 129.8 5.427C130.22 5.18433 130.729 5.063 131.326 5.063V6.379H130.99C129.562 6.379 128.848 7.15367 128.848 8.703V12.875H127.574V5.203H128.848V6.449ZM138.845 5.203L134.225 16.487H132.909L134.421 12.791L131.327 5.203H132.741L135.149 11.419L137.529 5.203H138.845ZM140.84 6.617C141.092 6.17833 141.465 5.81433 141.96 5.525C142.464 5.22633 143.047 5.077 143.71 5.077C144.391 5.077 145.007 5.24033 145.558 5.567C146.118 5.89367 146.556 6.35567 146.874 6.953C147.191 7.541 147.35 8.227 147.35 9.011C147.35 9.78567 147.191 10.4763 146.874 11.083C146.556 11.6897 146.118 12.161 145.558 12.497C145.007 12.833 144.391 13.001 143.71 13.001C143.056 13.001 142.478 12.8563 141.974 12.567C141.479 12.2683 141.101 11.8997 140.84 11.461V16.515H139.566V5.203H140.84V6.617ZM146.048 9.011C146.048 8.43233 145.931 7.92833 145.698 7.499C145.464 7.06967 145.147 6.743 144.746 6.519C144.354 6.295 143.92 6.183 143.444 6.183C142.977 6.183 142.543 6.29967 142.142 6.533C141.75 6.757 141.432 7.08833 141.19 7.527C140.956 7.95633 140.84 8.45567 140.84 9.025C140.84 9.60367 140.956 10.1123 141.19 10.551C141.432 10.9803 141.75 11.3117 142.142 11.545C142.543 11.769 142.977 11.881 143.444 11.881C143.92 11.881 144.354 11.769 144.746 11.545C145.147 11.3117 145.464 10.9803 145.698 10.551C145.931 10.1123 146.048 9.599 146.048 9.011ZM150.021 6.253V10.775C150.021 11.1483 150.1 11.4143 150.259 11.573C150.417 11.7223 150.693 11.797 151.085 11.797H152.023V12.875H150.875C150.165 12.875 149.633 12.7117 149.279 12.385C148.924 12.0583 148.747 11.5217 148.747 10.775V6.253H147.753V5.203H148.747V3.271H150.021V5.203H152.023V6.253H150.021ZM160.006 8.745C160.006 8.98767 159.992 9.24433 159.964 9.515H153.832C153.879 10.271 154.136 10.8637 154.602 11.293C155.078 11.713 155.652 11.923 156.324 11.923C156.875 11.923 157.332 11.797 157.696 11.545C158.07 11.2837 158.331 10.9383 158.48 10.509H159.852C159.647 11.2463 159.236 11.8483 158.62 12.315C158.004 12.7723 157.239 13.001 156.324 13.001C155.596 13.001 154.943 12.8377 154.364 12.511C153.795 12.1843 153.347 11.7223 153.02 11.125C152.694 10.5183 152.53 9.81833 152.53 9.025C152.53 8.23167 152.689 7.53633 153.006 6.939C153.324 6.34167 153.767 5.88433 154.336 5.567C154.915 5.24033 155.578 5.077 156.324 5.077C157.052 5.077 157.696 5.23567 158.256 5.553C158.816 5.87033 159.246 6.309 159.544 6.869C159.852 7.41967 160.006 8.045 160.006 8.745ZM158.69 8.479C158.69 7.99367 158.583 7.57833 158.368 7.233C158.154 6.87833 157.86 6.61233 157.486 6.435C157.122 6.24833 156.716 6.155 156.268 6.155C155.624 6.155 155.074 6.36033 154.616 6.771C154.168 7.18167 153.912 7.751 153.846 8.479H158.69ZM160.652 9.011C160.652 8.227 160.811 7.541 161.128 6.953C161.445 6.35567 161.879 5.89367 162.43 5.567C162.99 5.24033 163.615 5.077 164.306 5.077C164.903 5.077 165.459 5.217 165.972 5.497C166.485 5.76767 166.877 6.127 167.148 6.575V2.515H168.436V12.875H167.148V11.433C166.896 11.8903 166.523 12.2683 166.028 12.567C165.533 12.8563 164.955 13.001 164.292 13.001C163.611 13.001 162.99 12.833 162.43 12.497C161.879 12.161 161.445 11.6897 161.128 11.083C160.811 10.4763 160.652 9.78567 160.652 9.011ZM167.148 9.025C167.148 8.44633 167.031 7.94233 166.798 7.513C166.565 7.08367 166.247 6.757 165.846 6.533C165.454 6.29967 165.02 6.183 164.544 6.183C164.068 6.183 163.634 6.295 163.242 6.519C162.85 6.743 162.537 7.06967 162.304 7.499C162.071 7.92833 161.954 8.43233 161.954 9.011C161.954 9.599 162.071 10.1123 162.304 10.551C162.537 10.9803 162.85 11.3117 163.242 11.545C163.634 11.769 164.068 11.881 164.544 11.881C165.02 11.881 165.454 11.769 165.846 11.545C166.247 11.3117 166.565 10.9803 166.798 10.551C167.031 10.1123 167.148 9.60367 167.148 9.025Z" fill="black"/>
</g>
</svg>
