<svg width="600" height="667" viewBox="0 0 600 667" fill="none" xmlns="http://www.w3.org/2000/svg">
<path fill-rule="evenodd" clip-rule="evenodd" d="M39.0523 39.0523C-3.97364e-06 78.105 0 140.959 0 266.667V400C0 525.707 -3.97364e-06 588.563 39.0523 627.613C78.105 666.667 140.959 666.667 266.667 666.667H333.333C459.04 666.667 521.897 666.667 560.947 627.613C600 588.563 600 525.707 600 400V266.667C600 140.959 600 78.105 560.947 39.0523C521.897 3.97364e-06 459.04 0 333.333 0H266.667C140.959 0 78.105 3.97364e-06 39.0523 39.0523ZM166.667 241.667C152.86 241.667 141.667 252.86 141.667 266.667C141.667 280.473 152.86 291.667 166.667 291.667H433.333C447.14 291.667 458.333 280.473 458.333 266.667C458.333 252.86 447.14 241.667 433.333 241.667H166.667ZM166.667 375C152.86 375 141.667 386.193 141.667 400C141.667 413.807 152.86 425 166.667 425H333.333C347.14 425 358.333 413.807 358.333 400C358.333 386.193 347.14 375 333.333 375H166.667Z" fill="white"/>
</svg>
