<svg width="682" height="534" viewBox="0 0 682 534" fill="none" xmlns="http://www.w3.org/2000/svg">
<path d="M514.954 500.667C588.59 500.667 648.287 440.97 648.287 367.333C648.287 293.697 588.59 234 514.954 234H514.204C514.7 228.51 514.954 222.95 514.954 217.333C514.954 116.081 432.87 34 331.62 34C230.367 34 148.286 116.081 148.286 217.333C148.286 217.49 148.286 217.65 148.286 217.807C83.079 231.043 34 288.693 34 357.807C34 436.703 97.9593 500.663 176.857 500.663" stroke="#461DB9" stroke-width="66.6667" stroke-linecap="round" stroke-linejoin="round"/>
<path d="M348.291 500.667V334M348.291 334L414.957 400.667M348.291 334L281.624 400.667" stroke="#461DB9" stroke-width="66.6667" stroke-linecap="round" stroke-linejoin="round"/>
</svg>
